<svg width="120" height="120" viewBox="0 0 200 200" xmlns="http://www.w3.org/2000/svg">
  <rect width="200" height="200" fill="#ff8c42"/>
  <circle cx="100" cy="100" r="100" fill="#ff8c42"/>
  <!-- 髪・耳・顔ベース -->
  <ellipse cx="100" cy="44" rx="36" ry="30" fill="#3d2010"/>
  <ellipse cx="62" cy="90" rx="10" ry="22" fill="#3d2010"/>
  <ellipse cx="138" cy="90" rx="10" ry="22" fill="#3d2010"/>
  <ellipse cx="100" cy="106" rx="42" ry="46" fill="#f9d8a8"/>
  <!-- ニコッと笑顔 -->
  <path d="M74 78 Q83 73 92 77" stroke="#3d2010" stroke-width="4" stroke-linecap="round" fill="none"/>
  <path d="M108 77 Q117 73 126 78" stroke="#3d2010" stroke-width="4" stroke-linecap="round" fill="none"/>
  <!-- メガネ -->
  <rect x="73" y="88" width="22" height="16" rx="6" fill="none" stroke="#5a3a20" stroke-width="3"/>
  <rect x="105" y="88" width="22" height="16" rx="6" fill="none" stroke="#5a3a20" stroke-width="3"/>
  <line x1="95" y1="96" x2="105" y2="96" stroke="#5a3a20" stroke-width="3"/>
  <line x1="58" y1="94" x2="73" y2="94" stroke="#5a3a20" stroke-width="2.5"/>
  <line x1="127" y1="94" x2="142" y2="94" stroke="#5a3a20" stroke-width="2.5"/>
  <!-- 目（細め） -->
  <path d="M78 96 Q84 91 90 96" stroke="#2d1a0e" stroke-width="3.5" stroke-linecap="round" fill="none"/>
  <path d="M110 96 Q116 91 122 96" stroke="#2d1a0e" stroke-width="3.5" stroke-linecap="round" fill="none"/>
  <!-- ほっぺ -->
  <ellipse cx="70" cy="110" rx="13" ry="9" fill="#f08080" opacity="0.5"/>
  <ellipse cx="130" cy="110" rx="13" ry="9" fill="#f08080" opacity="0.5"/>
  <!-- 口（笑顔） -->
  <path d="M82 118 Q100 132 118 118" stroke="#c47a5a" stroke-width="3.5" stroke-linecap="round" fill="none"/>
  <!-- 鼻 -->
  <ellipse cx="100" cy="111" rx="3" ry="2" fill="#d4956a" opacity="0.5"/>
  <!-- 服 -->
  <ellipse cx="100" cy="174" rx="48" ry="28" fill="#e8e0d0"/>
  <path d="M70 158 Q100 168 130 158 L132 200 Q100 200 68 200 Z" fill="white" opacity="0.9"/>
  <rect x="93" y="150" width="14" height="20" rx="4" fill="white" opacity="0.9"/>
</svg>
